<svg xmlns="http://www.w3.org/2000/svg" xmlns:xlink="http://www.w3.org/1999/xlink" version="1.1" x="0px" y="0px" viewBox="0 0 100 125" enable-background="new 0 0 100 100" xml:space="preserve"><path fill-rule="evenodd" clip-rule="evenodd" d="M74.05,35.554c4.5,4.433,6.801,10.117,6.9,17.05c0.066,1-0.268,4.033-1,9.1  c-0.066,0.533-0.334,0.967-0.801,1.3c-0.434,0.334-0.916,0.45-1.449,0.351c-0.533-0.067-0.967-0.317-1.301-0.75  c-0.332-0.434-0.467-0.934-0.4-1.5c0.668-4.467,1-7.267,1-8.4c-0.1-5.8-2.033-10.583-5.799-14.35c-2.1-2.2-5.084-3.95-8.951-5.25  c-1.898-0.7-5.732-1.7-11.5-3c-11.398-2.367-19.6-6.15-24.6-11.35c-1.266-1.167-2.934-3.267-5-6.3l-0.199-0.3  c-3,8.933-3.85,17.816-2.551,26.649c1.566,10,5.566,18.317,12,24.95c5.668,5.834,11.801,9.566,18.4,11.2  c4.533,1.167,10.9,0.767,19.1-1.2c0.533-0.133,1.033-0.05,1.5,0.25c0.467,0.267,0.768,0.667,0.9,1.2s0.066,1.05-0.199,1.55  c-0.301,0.434-0.717,0.733-1.25,0.9c-5.434,1.3-10.15,1.95-14.15,1.95c-2.6,0-4.9-0.267-6.9-0.801  c-7.4-1.866-14.15-5.966-20.25-12.3c-7.066-7.267-11.434-16.3-13.1-27.1c-1.6-10.967-0.184-21.867,4.25-32.7  c0.332-0.8,0.934-1.2,1.799-1.2c0.867-0.066,1.484,0.284,1.852,1.05c0.398,0.8,1.115,2.033,2.148,3.7  c1.834,2.733,3.318,4.6,4.451,5.6l0.049,0.1c4.367,4.567,11.9,7.983,22.602,10.25c5.865,1.3,9.865,2.333,12,3.1  C68.067,30.871,71.55,32.954,74.05,35.554z M85.851,93.604c-0.334,0.466-0.768,0.75-1.301,0.85l-0.4,0.05  c-0.467,0-0.883-0.149-1.25-0.45c-0.367-0.3-0.6-0.683-0.699-1.149c-3.201-16.066-12.1-28.3-26.701-36.7  c-0.5-0.267-0.816-0.667-0.949-1.2s-0.066-1.033,0.199-1.5c0.268-0.467,0.668-0.783,1.201-0.95c0.533-0.133,1.033-0.066,1.5,0.2  c15.633,9,25.199,22.117,28.699,39.351C86.249,92.638,86.149,93.138,85.851,93.604z"/><text x="0" y="115" fill="#000000" font-size="5px" font-weight="bold" font-family="'Helvetica Neue', Helvetica, Arial-Unicode, Arial, Sans-serif">Created by Saeful Muslim</text><text x="0" y="120" fill="#000000" font-size="5px" font-weight="bold" font-family="'Helvetica Neue', Helvetica, Arial-Unicode, Arial, Sans-serif">from the Noun Project</text></svg>